<svg width="36" height="36" viewBox="0 0 36 36" fill="none" xmlns="http://www.w3.org/2000/svg">
<path d="M18 3.80621C22.7711 3.80621 23.4217 3.80621 25.3735 3.80621C27.1084 3.80621 27.9759 4.23083 28.6265 4.44314C29.494 4.86776 30.1446 5.08007 30.7952 5.71699C31.4458 6.35392 31.8795 6.99085 32.0964 7.84008C32.3133 8.47701 32.5301 9.32624 32.747 11.0247C32.747 12.9355 32.747 13.3601 32.747 18.2432C32.747 23.1263 32.747 23.5509 32.747 25.4617C32.747 27.1602 32.3133 28.0094 32.0964 28.6463C31.6627 29.4956 31.4458 30.1325 30.7952 30.7694C30.1446 31.4063 29.494 31.831 28.6265 32.0433C27.9759 32.2556 27.1084 32.4679 25.3735 32.6802C23.4217 32.6802 22.988 32.6802 18 32.6802C13.012 32.6802 12.5783 32.6802 10.6265 32.6802C8.89157 32.6802 8.0241 32.2556 7.3735 32.0433C6.50603 31.6187 5.85542 31.4063 5.20482 30.7694C4.55422 30.1325 4.12048 29.4956 3.90362 28.6463C3.68675 28.0094 3.46988 27.1602 3.25301 25.4617C3.25301 23.5509 3.25301 23.1263 3.25301 18.2432C3.25301 13.3601 3.25301 12.9355 3.25301 11.0247C3.25301 9.32624 3.68675 8.47701 3.90362 7.84008C4.33735 6.99085 4.55422 6.35392 5.20482 5.71699C5.85542 5.08007 6.50603 4.65545 7.3735 4.44314C8.0241 4.23083 8.89157 4.01852 10.6265 3.80621C12.5783 3.80621 13.2289 3.80621 18 3.80621ZM18 0.621582C13.012 0.621582 12.5783 0.621582 10.6265 0.621582C8.6747 0.621582 7.3735 1.0462 6.28916 1.47082C5.20482 1.89544 4.12048 2.53236 3.03615 3.59391C1.95181 4.65545 1.51807 5.50468 0.867471 6.77854C0.433736 7.84008 0.216867 9.11393 0 11.0247C0 12.9355 0 13.5724 0 18.2432C0 23.1263 0 23.5509 0 25.4617C0 27.3725 0.433736 28.6463 0.867471 29.7079C1.30121 30.7694 1.95181 31.831 3.03615 32.8925C4.12048 33.9541 4.98795 34.3787 6.28916 35.0156C7.3735 35.4402 8.6747 35.6525 10.6265 35.8648C12.5783 35.8648 13.2289 35.8648 18 35.8648C22.7711 35.8648 23.4217 35.8648 25.3735 35.8648C27.3253 35.8648 28.6265 35.4402 29.7108 35.0156C30.7952 34.591 31.8795 33.9541 32.9639 32.8925C34.0482 31.831 34.4819 30.9817 35.1325 29.7079C35.5663 28.6463 35.7831 27.3725 36 25.4617C36 23.5509 36 22.914 36 18.2432C36 13.5724 36 12.9355 36 11.0247C36 9.11393 35.5663 7.84008 35.1325 6.77854C34.6988 5.71699 34.0482 4.65545 32.9639 3.59391C31.8795 2.53236 31.0121 2.10774 29.7108 1.47082C28.6265 1.0462 27.3253 0.833891 25.3735 0.621582C23.4217 0.621582 22.988 0.621582 18 0.621582Z" fill="#444242"/>
<path d="M18 9.11393C12.7952 9.11393 8.6747 13.1478 8.6747 18.2432C8.6747 23.3386 12.7952 27.3725 18 27.3725C23.2048 27.3725 27.3253 23.3386 27.3253 18.2432C27.3253 13.1478 23.2048 9.11393 18 9.11393ZM18 24.1879C14.747 24.1879 11.9277 21.6401 11.9277 18.2432C11.9277 15.0586 14.5301 12.2986 18 12.2986C21.253 12.2986 24.0723 14.8463 24.0723 18.2432C24.0723 21.4278 21.253 24.1879 18 24.1879Z" fill="#444242"/>
<path d="M27.5422 11.0247C28.7399 11.0247 29.7108 10.0742 29.7108 8.90162C29.7108 7.72908 28.7399 6.77854 27.5422 6.77854C26.3444 6.77854 25.3735 7.72908 25.3735 8.90162C25.3735 10.0742 26.3444 11.0247 27.5422 11.0247Z" fill="#444242"/>
</svg>
